<svg width="462" height="61" viewBox="0 0 462 61" fill="none" xmlns="http://www.w3.org/2000/svg">
<rect width="462" height="61" rx="30.5" fill="white"/>
<path d="M177.517 35L183.277 21H184.877L190.597 35H188.117L183.637 23.66H184.477L179.957 35H177.517ZM180.357 32.3V30.3H187.777V32.3H180.357ZM195.754 35.2C194.887 35.2 194.1 34.98 193.394 34.54C192.7 34.1 192.147 33.5067 191.734 32.76C191.334 32 191.134 31.1533 191.134 30.22C191.134 29.2733 191.334 28.4267 191.734 27.68C192.147 26.92 192.7 26.32 193.394 25.88C194.1 25.4267 194.887 25.2 195.754 25.2C196.487 25.2 197.134 25.36 197.694 25.68C198.267 25.9867 198.72 26.4133 199.054 26.96C199.387 27.5067 199.554 28.1267 199.554 28.82V31.58C199.554 32.2733 199.387 32.8933 199.054 33.44C198.734 33.9867 198.287 34.42 197.714 34.74C197.14 35.0467 196.487 35.2 195.754 35.2ZM196.114 33.12C196.66 33.12 197.134 33 197.534 32.76C197.947 32.5067 198.267 32.16 198.494 31.72C198.72 31.28 198.834 30.7733 198.834 30.2C198.834 29.6267 198.72 29.12 198.494 28.68C198.267 28.24 197.947 27.9 197.534 27.66C197.134 27.4067 196.66 27.28 196.114 27.28C195.58 27.28 195.107 27.4067 194.694 27.66C194.294 27.9 193.974 28.24 193.734 28.68C193.507 29.12 193.394 29.6267 193.394 30.2C193.394 30.7733 193.507 31.28 193.734 31.72C193.974 32.16 194.294 32.5067 194.694 32.76C195.107 33 195.58 33.12 196.114 33.12ZM200.894 35H198.694V32.42L199.074 30.08L198.694 27.76V20.6H200.894V35ZM207.355 35.2C206.489 35.2 205.702 34.98 204.995 34.54C204.302 34.1 203.749 33.5067 203.335 32.76C202.935 32 202.735 31.1533 202.735 30.22C202.735 29.2733 202.935 28.4267 203.335 27.68C203.749 26.92 204.302 26.32 204.995 25.88C205.702 25.4267 206.489 25.2 207.355 25.2C208.089 25.2 208.735 25.36 209.295 25.68C209.869 25.9867 210.322 26.4133 210.655 26.96C210.989 27.5067 211.155 28.1267 211.155 28.82V31.58C211.155 32.2733 210.989 32.8933 210.655 33.44C210.335 33.9867 209.889 34.42 209.315 34.74C208.742 35.0467 208.089 35.2 207.355 35.2ZM207.715 33.12C208.262 33.12 208.735 33 209.135 32.76C209.549 32.5067 209.869 32.16 210.095 31.72C210.322 31.28 210.435 30.7733 210.435 30.2C210.435 29.6267 210.322 29.12 210.095 28.68C209.869 28.24 209.549 27.9 209.135 27.66C208.735 27.4067 208.262 27.28 207.715 27.28C207.182 27.28 206.709 27.4067 206.295 27.66C205.895 27.9 205.575 28.24 205.335 28.68C205.109 29.12 204.995 29.6267 204.995 30.2C204.995 30.7733 205.109 31.28 205.335 31.72C205.575 32.16 205.895 32.5067 206.295 32.76C206.709 33 207.182 33.12 207.715 33.12ZM212.495 35H210.295V32.42L210.675 30.08L210.295 27.76V20.6H212.495V35ZM220.401 35V21.4H222.601V35H220.401ZM218.101 27.4V25.4H224.901V27.4H218.101ZM230.626 35.2C229.693 35.2 228.846 34.98 228.086 34.54C227.326 34.0867 226.719 33.48 226.266 32.72C225.826 31.96 225.606 31.1133 225.606 30.18C225.606 29.2467 225.826 28.4067 226.266 27.66C226.719 26.9133 227.326 26.32 228.086 25.88C228.846 25.4267 229.693 25.2 230.626 25.2C231.573 25.2 232.426 25.42 233.186 25.86C233.946 26.3 234.546 26.9 234.986 27.66C235.439 28.4067 235.666 29.2467 235.666 30.18C235.666 31.1133 235.439 31.96 234.986 32.72C234.546 33.48 233.946 34.0867 233.186 34.54C232.426 34.98 231.573 35.2 230.626 35.2ZM230.626 33.08C231.173 33.08 231.653 32.96 232.066 32.72C232.493 32.4667 232.819 32.12 233.046 31.68C233.286 31.24 233.406 30.74 233.406 30.18C233.406 29.62 233.286 29.1267 233.046 28.7C232.806 28.2733 232.479 27.94 232.066 27.7C231.653 27.4467 231.173 27.32 230.626 27.32C230.093 27.32 229.613 27.4467 229.186 27.7C228.773 27.94 228.446 28.2733 228.206 28.7C227.979 29.1267 227.866 29.62 227.866 30.18C227.866 30.74 227.979 31.24 228.206 31.68C228.446 32.12 228.773 32.4667 229.186 32.72C229.613 32.96 230.093 33.08 230.626 33.08ZM248.159 35.2C247.146 35.2 246.206 35.02 245.339 34.66C244.486 34.2867 243.739 33.7733 243.099 33.12C242.459 32.4533 241.966 31.6867 241.619 30.82C241.273 29.94 241.099 29 241.099 28C241.099 27 241.273 26.0667 241.619 25.2C241.966 24.32 242.459 23.5533 243.099 22.9C243.739 22.2467 244.486 21.7333 245.339 21.36C246.206 20.9867 247.146 20.8 248.159 20.8C249.293 20.8 250.273 20.9867 251.099 21.36C251.926 21.7333 252.659 22.24 253.299 22.88L251.739 24.44C251.326 23.9867 250.819 23.6333 250.219 23.38C249.633 23.1267 248.946 23 248.159 23C247.466 23 246.833 23.12 246.259 23.36C245.686 23.6 245.186 23.9467 244.759 24.4C244.346 24.84 244.026 25.3667 243.799 25.98C243.573 26.5933 243.459 27.2667 243.459 28C243.459 28.7333 243.573 29.4067 243.799 30.02C244.026 30.6333 244.346 31.1667 244.759 31.62C245.186 32.06 245.686 32.4 246.259 32.64C246.833 32.88 247.466 33 248.159 33C249.013 33 249.733 32.8733 250.319 32.62C250.919 32.3533 251.426 31.9933 251.839 31.54L253.399 33.1C252.759 33.7533 252.006 34.2667 251.139 34.64C250.273 35.0133 249.279 35.2 248.159 35.2ZM258.879 35.2C258.012 35.2 257.225 34.98 256.519 34.54C255.825 34.1 255.272 33.5067 254.859 32.76C254.459 32 254.259 31.1533 254.259 30.22C254.259 29.2733 254.459 28.4267 254.859 27.68C255.272 26.92 255.825 26.32 256.519 25.88C257.225 25.4267 258.012 25.2 258.879 25.2C259.612 25.2 260.259 25.36 260.819 25.68C261.392 25.9867 261.845 26.4133 262.179 26.96C262.512 27.5067 262.679 28.1267 262.679 28.82V31.58C262.679 32.2733 262.512 32.8933 262.179 33.44C261.859 33.9867 261.412 34.42 260.839 34.74C260.265 35.0467 259.612 35.2 258.879 35.2ZM259.239 33.12C260.052 33.12 260.705 32.8467 261.199 32.3C261.705 31.7533 261.959 31.0533 261.959 30.2C261.959 29.6267 261.845 29.12 261.619 28.68C261.392 28.24 261.072 27.9 260.659 27.66C260.259 27.4067 259.785 27.28 259.239 27.28C258.705 27.28 258.232 27.4067 257.819 27.66C257.419 27.9 257.099 28.24 256.859 28.68C256.632 29.12 256.519 29.6267 256.519 30.2C256.519 30.7733 256.632 31.28 256.859 31.72C257.099 32.16 257.419 32.5067 257.819 32.76C258.232 33 258.705 33.12 259.239 33.12ZM261.819 35V32.42L262.199 30.08L261.819 27.76V25.4H264.019V35H261.819ZM266.46 35V25.4H268.66V35H266.46ZM268.66 29.66L267.9 29.28C267.9 28.0667 268.167 27.0867 268.7 26.34C269.247 25.58 270.067 25.2 271.16 25.2C271.64 25.2 272.074 25.2867 272.46 25.46C272.847 25.6333 273.207 25.9133 273.54 26.3L272.1 27.78C271.927 27.5933 271.734 27.46 271.52 27.38C271.307 27.3 271.06 27.26 270.78 27.26C270.167 27.26 269.66 27.4533 269.26 27.84C268.86 28.2267 268.66 28.8333 268.66 29.66ZM276.084 35V21.4H278.284V35H276.084ZM273.784 27.4V25.4H280.584V27.4H273.784Z" fill="#F61B5A"/>
</svg>
