<svg width="228" height="40" viewBox="0 0 228 40" fill="none" xmlns="http://www.w3.org/2000/svg">
<path d="M0 6C0 2.68629 2.68629 0 6 0H51V40H6C2.68629 40 0 37.3137 0 34V6Z" fill="#E5E9EB"/>
<path d="M18.7085 14.8182H16.5956L19.7725 19.9091L16.5558 25H18.6837L20.9507 21.2962H21.0303L23.2973 25H25.4351L22.2483 19.9091L25.3854 14.8182H23.2824L21.0303 18.5469H20.9507L18.7085 14.8182ZM32.2828 17.6172H34.0576C34.0228 15.897 32.5562 14.679 30.3886 14.679C28.2508 14.679 26.645 15.8821 26.6499 17.6818C26.6499 19.1435 27.689 19.9837 29.3644 20.4162L30.5228 20.7145C31.6215 20.9929 32.3474 21.3359 32.3524 22.1264C32.3474 22.9964 31.5221 23.5781 30.319 23.5781C29.1656 23.5781 28.2707 23.0611 28.1961 21.9922H26.3815C26.456 24.0156 27.9624 25.1541 30.3339 25.1541C32.7749 25.1541 34.1918 23.9361 34.1968 22.1413C34.1918 20.3764 32.7352 19.571 31.2039 19.2081L30.2494 18.9695C29.4141 18.7706 28.5093 18.4176 28.5193 17.5675C28.5242 16.8018 29.2103 16.2401 30.3637 16.2401C31.4624 16.2401 32.1883 16.7521 32.2828 17.6172Z" fill="#252C32"/>
<rect width="41" height="40" transform="translate(68.6699 1.14441e-05)" fill="#F6F8F9"/>
<path d="M91.5072 17.3636H92.7004C92.6457 15.8274 91.2288 14.679 89.26 14.679C87.3112 14.679 85.7799 15.8125 85.7799 17.5227C85.7799 18.8949 86.7742 19.7102 88.3651 20.1676L89.618 20.5256C90.6919 20.8239 91.6464 21.2017 91.6464 22.2159C91.6464 23.3296 90.5725 24.0654 89.1606 24.0654C87.9475 24.0654 86.8737 23.5284 86.7742 22.375H85.5015C85.6208 24.0455 86.9731 25.179 89.1606 25.179C91.5072 25.179 92.8396 23.8864 92.8396 22.2358C92.8396 20.3267 91.0299 19.7102 89.9759 19.4318L88.9419 19.1534C88.1862 18.9546 86.9731 18.5568 86.9731 17.4631C86.9731 16.4886 87.868 15.7727 89.2203 15.7727C90.4532 15.7727 91.3879 16.3594 91.5072 17.3636Z" fill="#252C32"/>
<rect width="45" height="40" transform="translate(126.188 1.14441e-05)" fill="#F6F8F9"/>
<path opacity="0.4" d="M143.693 14.8182V25H144.846V17.2642H144.946L148.128 25H149.241L152.423 17.2642H152.522V25H153.676V14.8182H152.204L148.744 23.2699H148.625L145.165 14.8182H143.693Z" fill="#252C32"/>
<path d="M187.513 1.14441e-05H221.513C224.826 1.14441e-05 227.513 2.6863 227.513 6.00001V34C227.513 37.3137 224.826 40 221.513 40H187.513V1.14441e-05Z" fill="#F6F8F9"/>
<path d="M204.808 25H210.774V23.9063H206.041V14.8182H204.808V25Z" fill="#252C32"/>
</svg>
